<mxfile host="app.diagrams.net" modified="2023-04-02T08:45:59.815Z" agent="Mozilla/5.0 (Macintosh; Intel Mac OS X 10_15_7) AppleWebKit/537.36 (KHTML, like Gecko) Chrome/111.0.0.0 Safari/537.36" version="21.1.2" etag="dCW81N1iG5zz35I2Y37R" type="github">
  <diagram name="第 1 页" id="_a4S-tATns31d3K14dym">
    <mxGraphModel>
      <root>
        <mxCell id="0" />
        <mxCell id="1" parent="0" />
      </root>
    </mxGraphModel>
  </diagram>
</mxfile>
